<svg width="38" height="73" viewBox="0 0 38 73" fill="none" xmlns="http://www.w3.org/2000/svg">
<path d="M1.57871 7.6507L16.0417 1.6599L22.0325 16.1219L36.4955 22.1127L30.5047 36.5757L36.4955 51.0376L22.0325 57.0284L16.0417 71.4904L1.57871 65.4996V7.6507ZM1.57871 36.5757L22.0325 16.1219Z" fill="#5B0017"/>
<path fill-rule="evenodd" clip-rule="evenodd" d="M16.2343 72.7031L22.4093 57.7964L37.3171 51.6213L31.1421 36.7146L37.3171 21.8068L22.4093 15.6318L16.2343 0.725045L0.504639 7.24051V36.3742L0.504686 36.9483L0.504639 37.5365V66.1877L16.2343 72.7031ZM2.14837 34.7304V8.33881L15.3447 2.87267L20.8108 16.068L2.14837 34.7304ZM21.9731 17.2303L35.1695 22.6964L29.7033 35.8927H3.31066L21.9731 17.2303ZM3.31171 37.5365H29.7034L35.1694 50.7318L21.9731 56.1979L3.31171 37.5365ZM20.8108 57.3602L15.3447 70.5555L2.14837 65.0894V38.6977L20.8108 57.3602Z" fill="#CC9D2F"/>
<path d="M26.1559 27.1596C26.1559 28.4242 25.13 29.4491 23.8654 29.4491C22.6019 29.4491 21.5759 28.4242 21.5759 27.1596C21.5759 25.8951 22.6019 24.8702 23.8654 24.8702C25.13 24.8702 26.1559 25.8951 26.1559 27.1596Z" fill="#CC9D2F"/>
<path d="M13.1778 13.4223C13.1778 14.6868 12.1529 15.7128 10.8883 15.7128C9.6238 15.7128 8.59888 14.6868 8.59888 13.4223C8.59888 12.1577 9.6238 11.1328 10.8883 11.1328C12.1529 11.1328 13.1778 12.1577 13.1778 13.4223Z" fill="#CC9D2F"/>
<path d="M13.1778 58.5594C13.1778 59.824 12.1529 60.8489 10.8883 60.8489C9.6238 60.8489 8.59888 59.824 8.59888 58.5594C8.59888 57.2949 9.6238 56.2699 10.8883 56.2699C12.1529 56.2699 13.1778 57.2949 13.1778 58.5594Z" fill="#CC9D2F"/>
<path d="M26.1559 45.4763C26.1559 46.7408 25.13 47.7657 23.8654 47.7657C22.6019 47.7657 21.5759 46.7408 21.5759 45.4763C21.5759 44.2117 22.6019 43.1868 23.8654 43.1868C25.13 43.1868 26.1559 44.2117 26.1559 45.4763Z" fill="#CC9D2F"/>
</svg>
