<svg width="95" height="146" viewBox="0 0 95 146" fill="none" xmlns="http://www.w3.org/2000/svg">
<path d="M8.36682 25.7879L14.1657 23.3859L16.5677 29.1848L22.3666 31.5868L19.9646 37.3856L22.3666 43.1845L16.5677 45.5856L14.1657 51.3845L8.36682 48.9834M59.3683 77.9983L65.8048 71.5618L72.2413 77.9983H59.3683Z" stroke="white" stroke-width="0.545105" stroke-miterlimit="10"/>
<path d="M8.36682 22.0774C16.8211 22.0774 23.6746 28.9309 23.6746 37.3852C23.6746 45.8394 16.8211 52.693 8.36682 52.693" stroke="#4A8B40" stroke-width="0.545105" stroke-miterlimit="10"/>
<path d="M34.6512 36.9315C34.6512 37.341 34.3193 37.673 33.9098 37.673C33.5003 37.673 33.1683 37.341 33.1683 36.9315C33.1683 36.522 33.5003 36.1901 33.9098 36.1901C34.3193 36.1901 34.6512 36.522 34.6512 36.9315Z" fill="#CC9D2F"/>
<path d="M33.3547 39.1898C33.3547 39.5993 33.0228 39.9313 32.6133 39.9313C32.2038 39.9313 31.8718 39.5993 31.8718 39.1898C31.8718 38.7803 32.2038 38.4484 32.6133 38.4484C33.0228 38.4484 33.3547 38.7803 33.3547 39.1898Z" fill="#CC9D2F"/>
<path d="M35.9478 39.1898C35.9478 39.5993 35.6158 39.9313 35.2063 39.9313C34.7968 39.9313 34.4648 39.5993 34.4648 39.1898C34.4648 38.7803 34.7968 38.4484 35.2063 38.4484C35.6158 38.4484 35.9478 38.7803 35.9478 39.1898Z" fill="#CC9D2F"/>
<path d="M33.3562 43.7946C33.3562 44.2041 33.0243 44.536 32.6147 44.536C32.2052 44.536 31.8733 44.2041 31.8733 43.7946C31.8733 43.385 32.2052 43.0531 32.6147 43.0531C33.0243 43.0531 33.3562 43.385 33.3562 43.7946Z" fill="#CC9D2F"/>
<path d="M30.6878 43.7946C30.6878 44.2041 30.3558 44.536 29.9463 44.536C29.5368 44.536 29.2039 44.2041 29.2039 43.7946C29.2039 43.385 29.5368 43.0531 29.9463 43.0531C30.3558 43.0531 30.6878 43.385 30.6878 43.7946Z" fill="#CC9D2F"/>
<path d="M38.6935 43.7946C38.6935 44.2041 38.3616 44.536 37.952 44.536C37.5425 44.536 37.2106 44.2041 37.2106 43.7946C37.2106 43.385 37.5425 43.0531 37.952 43.0531C38.3616 43.0531 38.6935 43.385 38.6935 43.7946Z" fill="#CC9D2F"/>
<path d="M36.0248 43.7946C36.0248 44.2041 35.6929 44.536 35.2833 44.536C34.8738 44.536 34.5419 44.2041 34.5419 43.7946C34.5419 43.385 34.8738 43.0531 35.2833 43.0531C35.6929 43.0531 36.0248 43.385 36.0248 43.7946Z" fill="#CC9D2F"/>
<path d="M32.1254 41.4641C32.1254 41.8736 31.7934 42.2056 31.3839 42.2056C30.9744 42.2056 30.6425 41.8736 30.6425 41.4641C30.6425 41.0546 30.9744 40.7227 31.3839 40.7227C31.7934 40.7227 32.1254 41.0546 32.1254 41.4641Z" fill="#CC9D2F"/>
<path d="M34.6688 41.4641C34.6688 41.8736 34.3369 42.2056 33.9273 42.2056C33.5178 42.2056 33.1849 41.8736 33.1849 41.4641C33.1849 41.0546 33.5178 40.7227 33.9273 40.7227C34.3369 40.7227 34.6688 41.0546 34.6688 41.4641Z" fill="#CC9D2F"/>
<path d="M37.212 41.4641C37.212 41.8736 36.8801 42.2056 36.4706 42.2056C36.0611 42.2056 35.7291 41.8736 35.7291 41.4641C35.7291 41.0546 36.0611 40.7227 36.4706 40.7227C36.8801 40.7227 37.212 41.0546 37.212 41.4641Z" fill="#CC9D2F"/>
<path d="M59.9014 36.9315C59.9014 37.341 59.5694 37.673 59.1599 37.673C58.7504 37.673 58.4185 37.341 58.4185 36.9315C58.4185 36.522 58.7504 36.1901 59.1599 36.1901C59.5694 36.1901 59.9014 36.522 59.9014 36.9315Z" fill="#CC9D2F"/>
<path d="M58.6046 39.1898C58.6046 39.5993 58.2727 39.9313 57.8632 39.9313C57.4536 39.9313 57.1217 39.5993 57.1217 39.1898C57.1217 38.7803 57.4536 38.4484 57.8632 38.4484C58.2727 38.4484 58.6046 38.7803 58.6046 39.1898Z" fill="#CC9D2F"/>
<path d="M61.1978 39.1898C61.1978 39.5993 60.8658 39.9313 60.4563 39.9313C60.0468 39.9313 59.7148 39.5993 59.7148 39.1898C59.7148 38.7803 60.0468 38.4484 60.4563 38.4484C60.8658 38.4484 61.1978 38.7803 61.1978 39.1898Z" fill="#CC9D2F"/>
<path d="M58.6064 43.7946C58.6064 44.2041 58.2745 44.536 57.8649 44.536C57.4554 44.536 57.1226 44.2041 57.1226 43.7946C57.1226 43.385 57.4554 43.0531 57.8649 43.0531C58.2745 43.0531 58.6064 43.385 58.6064 43.7946Z" fill="#CC9D2F"/>
<path d="M55.9377 43.7946C55.9377 44.2041 55.6058 44.536 55.1962 44.536C54.7867 44.536 54.4539 44.2041 54.4539 43.7946C54.4539 43.385 54.7867 43.0531 55.1962 43.0531C55.6058 43.0531 55.9377 43.385 55.9377 43.7946Z" fill="#CC9D2F"/>
<path d="M63.9435 43.7946C63.9435 44.2041 63.6116 44.536 63.202 44.536C62.7925 44.536 62.4606 44.2041 62.4606 43.7946C62.4606 43.385 62.7925 43.0531 63.202 43.0531C63.6116 43.0531 63.9435 43.385 63.9435 43.7946Z" fill="#CC9D2F"/>
<path d="M61.275 43.7946C61.275 44.2041 60.9431 44.536 60.5335 44.536C60.124 44.536 59.7911 44.2041 59.7911 43.7946C59.7911 43.385 60.124 43.0531 60.5335 43.0531C60.9431 43.0531 61.275 43.385 61.275 43.7946Z" fill="#CC9D2F"/>
<path d="M57.3752 41.4641C57.3752 41.8736 57.0433 42.2056 56.6338 42.2056C56.2243 42.2056 55.8923 41.8736 55.8923 41.4641C55.8923 41.0546 56.2243 40.7227 56.6338 40.7227C57.0433 40.7227 57.3752 41.0546 57.3752 41.4641Z" fill="#CC9D2F"/>
<path d="M59.9187 41.4641C59.9187 41.8736 59.5867 42.2056 59.1772 42.2056C58.7677 42.2056 58.4348 41.8736 58.4348 41.4641C58.4348 41.0546 58.7677 40.7227 59.1772 40.7227C59.5867 40.7227 59.9187 41.0546 59.9187 41.4641Z" fill="#CC9D2F"/>
<path d="M62.4622 41.4641C62.4622 41.8736 62.1303 42.2056 61.7208 42.2056C61.3113 42.2056 60.9784 41.8736 60.9784 41.4641C60.9784 41.0546 61.3113 40.7227 61.7208 40.7227C62.1303 40.7227 62.4622 41.0546 62.4622 41.4641Z" fill="#CC9D2F"/>
<path d="M49.0613 9.83637C49.0613 14.4964 46.6004 18.2738 46.6004 18.2738C46.6004 18.2738 44.1395 14.4964 44.1395 9.83637C44.1395 5.17633 46.6004 1.39893 46.6004 1.39893C46.6004 1.39893 49.0613 5.17633 49.0613 9.83637ZM55.1379 3.21563C59.1733 5.54565 61.2144 9.56615 61.2144 9.56615C61.2144 9.56615 56.7124 9.80831 52.6769 7.4783C48.6415 5.14828 46.6004 1.12871 46.6004 1.12871C46.6004 1.12871 51.1024 0.885612 55.1379 3.21563ZM38.0629 3.21563C42.0984 0.885612 46.6004 1.12871 46.6004 1.12871C46.6004 1.12871 44.5593 5.14828 40.5238 7.4783C36.4884 9.80831 31.9863 9.56615 31.9863 9.56615C31.9863 9.56615 34.0274 5.54565 38.0629 3.21563Z" stroke="white" stroke-width="0.545105" stroke-miterlimit="10"/>
<path d="M73.9596 1.12828L46.6006 28.4873L19.1883 1.07498" stroke="#4A8B40" stroke-width="0.545105" stroke-miterlimit="10"/>
<path d="M46.6893 77.9983L53.1258 71.5618L59.5624 77.9983H46.6893ZM20.9431 77.9983L27.3797 71.5618L33.8162 77.9983H20.9431ZM33.8162 77.9983L40.2528 71.5618L46.6893 77.9983H33.8162ZM72.241 77.9983L78.6775 71.5618L85.1141 77.9983H85.0056H8.19349H8.07007L14.5066 71.5618L20.9431 77.9983H72.241ZM74.1998 36.7554L67.5015 30.0562L74.1998 23.3588V50.1512L67.5015 43.4529L74.1998 36.7554ZM8.36646 64.3604L18.4766 61.2833L8.36646 58.2062V64.3604ZM8.36646 70.5136L18.4766 67.4375L8.36646 64.3604V70.5136Z" stroke="white" stroke-width="0.545105" stroke-miterlimit="10"/>
<path d="M24.4764 1.07571V3.71989M52.6312 11.6917L53.6456 15.4775L56.417 12.7062L52.6312 11.6917ZM40.7295 11.6917L36.9447 12.7062L39.716 15.4775L40.7295 11.6917ZM35.1111 1.1103L31.7171 1.10376V3.07006L35.1111 1.1103ZM58.3085 1.1103L61.7025 3.07006V1.10376L58.3085 1.1103ZM46.6004 20.0207V25.1707V20.0207ZM44.3732 20.0207V22.6649V20.0207ZM48.8266 20.0207V22.6649V20.0207ZM66.9357 1.07571V4.81945V1.07571ZM64.7095 1.07571V7.0195V1.07571ZM69.1629 1.07571V3.71989V1.07571ZM26.7036 1.07571V4.81945V1.07571ZM28.9298 1.07571V7.0195V1.07571Z" stroke="#CC9D2F" stroke-width="0.545105" stroke-miterlimit="10"/>
<path d="M85.0062 68.3245C82.4406 68.3245 80.3536 66.2366 80.3536 63.671C80.3536 61.1053 82.4406 59.0184 85.0062 59.0184V68.3245Z" stroke="#4A8B40" stroke-width="0.545105" stroke-miterlimit="10"/>
<path d="M85.0062 54.0715C82.4406 54.0715 80.3536 51.9837 80.3536 49.418C80.3536 46.8524 82.4406 44.7655 85.0062 44.7655V54.0715Z" stroke="#CC9D2F" stroke-width="0.545105" stroke-miterlimit="10"/>
<path d="M85.0062 39.8361C82.4406 39.8361 80.3536 37.7482 80.3536 35.1826C80.3536 32.6169 82.4406 30.53 85.0062 30.53V39.8361Z" stroke="#4A8B40" stroke-width="0.545105" stroke-miterlimit="10"/>
<path d="M85.0062 25.6005C82.4406 25.6005 80.3536 23.5126 80.3536 20.947C80.3536 18.3813 82.4406 16.2944 85.0062 16.2944V25.6005Z" stroke="#CC9D2F" stroke-width="0.545105" stroke-miterlimit="10"/>
<path d="M51.7631 63.3674L46.6001 68.5305L41.437 63.3674M41.5118 51.7548L46.6001 46.6674L51.7631 51.8305" stroke="#4A8B40" stroke-width="0.545105" stroke-miterlimit="10"/>
<path d="M8.36634 37.3855L19.1862 26.5657M72.2409 73.9636L70.5148 72.2376L72.2409 70.5116L73.9669 72.2376L72.2409 73.9636ZM20.943 73.9636L19.217 72.2376L20.943 70.5116L22.669 72.2376L20.943 73.9636ZM33.8161 73.9636L32.0901 72.2376L33.8161 70.5116L35.5421 72.2376L33.8161 73.9636ZM59.3678 73.9636L57.6418 72.2376L59.3678 70.5116L61.0938 72.2376L59.3678 73.9636ZM8.36634 37.3855H23.6742H8.36634ZM8.31024 37.3294L19.1862 48.2053L8.31024 37.3294Z" stroke="#CC9D2F" stroke-width="0.545105" stroke-miterlimit="10"/>
<path d="M18.2202 33.61C18.2202 34.1168 17.8088 34.5282 17.302 34.5282C16.7952 34.5282 16.3838 34.1168 16.3838 33.61C16.3838 33.1032 16.7952 32.6918 17.302 32.6918C17.8088 32.6918 18.2202 33.1032 18.2202 33.61ZM13.0169 28.1019C13.0169 28.6087 12.6055 29.0201 12.0987 29.0201C11.5919 29.0201 11.1805 28.6087 11.1805 28.1019C11.1805 27.5951 11.5919 27.1837 12.0987 27.1837C12.6055 27.1837 13.0169 27.5951 13.0169 28.1019ZM13.0169 46.1998C13.0169 46.7065 12.6055 47.1179 12.0987 47.1179C11.5919 47.1179 11.1805 46.7065 11.1805 46.1998C11.1805 45.693 11.5919 45.2816 12.0987 45.2816C12.6055 45.2816 13.0169 45.693 13.0169 46.1998ZM18.2202 40.9544C18.2202 41.4612 17.8088 41.8716 17.302 41.8716C16.7952 41.8716 16.3838 41.4612 16.3838 40.9544C16.3838 40.4467 16.7952 40.0362 17.302 40.0362C17.8088 40.0362 18.2202 40.4467 18.2202 40.9544ZM50.142 57.5983C50.142 63.7132 55.0994 68.6697 61.2133 68.6697C67.3282 68.6697 72.2847 63.7132 72.2847 57.5983C72.2847 51.4844 67.3282 46.5279 61.2133 46.5279C55.0994 46.5279 50.142 51.4844 50.142 57.5983ZM20.9148 57.5983C20.9148 63.7132 25.8713 68.6697 31.9862 68.6697C38.1001 68.6697 43.0566 63.7132 43.0566 57.5983C43.0566 51.4844 38.1001 46.5279 31.9862 46.5279C25.8713 46.5279 20.9148 51.4844 20.9148 57.5983Z" stroke="white" stroke-width="0.545105" stroke-miterlimit="10"/>
<path d="M51.4489 57.5987C51.4489 62.9918 55.8209 67.3629 61.2131 67.3629C66.6061 67.3629 70.9782 62.9918 70.9782 57.5987C70.9782 52.2056 66.6061 47.8336 61.2131 47.8336C55.8209 47.8336 51.4489 52.2056 51.4489 57.5987Z" stroke="#CC9D2F" stroke-width="0.545105" stroke-miterlimit="10"/>
<path d="M61.2132 63.9816C57.6939 63.9816 54.83 61.1186 54.83 57.5983C54.83 54.079 57.6939 51.216 61.2132 51.216C64.7325 51.216 67.5964 54.079 67.5964 57.5983C67.5964 61.1186 64.7325 63.9816 61.2132 63.9816Z" stroke="white" stroke-width="0.545105" stroke-miterlimit="10"/>
<path d="M22.2211 57.5987C22.2211 62.9918 26.5932 67.3629 31.9853 67.3629C37.3784 67.3629 41.7505 62.9918 41.7505 57.5987C41.7505 52.2056 37.3784 47.8336 31.9853 47.8336C26.5932 47.8336 22.2211 52.2056 22.2211 57.5987Z" stroke="#CC9D2F" stroke-width="0.545105" stroke-miterlimit="10"/>
<path d="M31.9856 63.9816C28.4663 63.9816 25.6024 61.1186 25.6024 57.5983C25.6024 54.079 28.4663 51.216 31.9856 51.216C35.5049 51.216 38.3688 54.079 38.3688 57.5983C38.3688 61.1186 35.5049 63.9816 31.9856 63.9816Z" stroke="white" stroke-width="0.545105" stroke-miterlimit="10"/>
<path d="M8.31024 1.07531L46.5994 39.3645L84.8895 1.07531V6.68999L46.5994 44.9801L8.31024 6.68999V1.07531Z" stroke="#4A8B40" stroke-width="0.545105" stroke-miterlimit="10"/>
<path d="M49.6598 39.5629C49.6598 39.8696 49.4111 40.1193 49.1035 40.1193C48.7968 40.1193 48.5481 39.8696 48.5481 39.5629C48.5481 39.2563 48.7968 39.0066 49.1035 39.0066C49.4111 39.0066 49.6598 39.2563 49.6598 39.5629Z" fill="white"/>
<path d="M49.6598 39.5629C49.6598 39.8696 49.4111 40.1193 49.1035 40.1193C48.7968 40.1193 48.5481 39.8696 48.5481 39.5629C48.5481 39.2563 48.7968 39.0066 49.1035 39.0066C49.4111 39.0066 49.6598 39.2563 49.6598 39.5629Z" stroke="white" stroke-width="0.19074" stroke-miterlimit="10"/>
<path d="M52.1909 37.0338C52.1909 37.3404 51.9422 37.5901 51.6346 37.5901C51.3279 37.5901 51.0792 37.3404 51.0792 37.0338C51.0792 36.7271 51.3279 36.4774 51.6346 36.4774C51.9422 36.4774 52.1909 36.7271 52.1909 37.0338Z" fill="white"/>
<path d="M52.1909 37.0338C52.1909 37.3404 51.9422 37.5901 51.6346 37.5901C51.3279 37.5901 51.0792 37.3404 51.0792 37.0338C51.0792 36.7271 51.3279 36.4774 51.6346 36.4774C51.9422 36.4774 52.1909 36.7271 52.1909 37.0338Z" stroke="white" stroke-width="0.19074" stroke-miterlimit="10"/>
<path d="M54.7219 34.5046C54.7219 34.8113 54.4732 35.0609 54.1656 35.0609C53.8589 35.0609 53.6102 34.8113 53.6102 34.5046C53.6102 34.1979 53.8589 33.9483 54.1656 33.9483C54.4732 33.9483 54.7219 34.1979 54.7219 34.5046Z" fill="white"/>
<path d="M54.7219 34.5046C54.7219 34.8113 54.4732 35.0609 54.1656 35.0609C53.8589 35.0609 53.6102 34.8113 53.6102 34.5046C53.6102 34.1979 53.8589 33.9483 54.1656 33.9483C54.4732 33.9483 54.7219 34.1979 54.7219 34.5046Z" stroke="white" stroke-width="0.19074" stroke-miterlimit="10"/>
<path d="M57.2521 31.9754C57.2521 32.2821 57.0034 32.5317 56.6958 32.5317C56.3891 32.5317 56.1404 32.2821 56.1404 31.9754C56.1404 31.6687 56.3891 31.4191 56.6958 31.4191C57.0034 31.4191 57.2521 31.6687 57.2521 31.9754Z" fill="white"/>
<path d="M57.2521 31.9754C57.2521 32.2821 57.0034 32.5317 56.6958 32.5317C56.3891 32.5317 56.1404 32.2821 56.1404 31.9754C56.1404 31.6687 56.3891 31.4191 56.6958 31.4191C57.0034 31.4191 57.2521 31.6687 57.2521 31.9754Z" stroke="white" stroke-width="0.19074" stroke-miterlimit="10"/>
<path d="M59.7832 29.4462C59.7832 29.7529 59.5345 30.0026 59.2269 30.0026C58.9202 30.0026 58.6715 29.7529 58.6715 29.4462C58.6715 29.1396 58.9202 28.8899 59.2269 28.8899C59.5345 28.8899 59.7832 29.1396 59.7832 29.4462Z" fill="white"/>
<path d="M59.7832 29.4462C59.7832 29.7529 59.5345 30.0026 59.2269 30.0026C58.9202 30.0026 58.6715 29.7529 58.6715 29.4462C58.6715 29.1396 58.9202 28.8899 59.2269 28.8899C59.5345 28.8899 59.7832 29.1396 59.7832 29.4462Z" stroke="white" stroke-width="0.19074" stroke-miterlimit="10"/>
<path d="M62.3134 26.9171C62.3134 27.2237 62.0647 27.4734 61.7571 27.4734C61.4504 27.4734 61.2017 27.2237 61.2017 26.9171C61.2017 26.6104 61.4504 26.3607 61.7571 26.3607C62.0647 26.3607 62.3134 26.6104 62.3134 26.9171Z" fill="white"/>
<path d="M62.3134 26.9171C62.3134 27.2237 62.0647 27.4734 61.7571 27.4734C61.4504 27.4734 61.2017 27.2237 61.2017 26.9171C61.2017 26.6104 61.4504 26.3607 61.7571 26.3607C62.0647 26.3607 62.3134 26.6104 62.3134 26.9171Z" stroke="white" stroke-width="0.19074" stroke-miterlimit="10"/>
<path d="M64.8444 24.3878C64.8444 24.6944 64.5957 24.9441 64.2881 24.9441C63.9814 24.9441 63.7327 24.6944 63.7327 24.3878C63.7327 24.0811 63.9814 23.8314 64.2881 23.8314C64.5957 23.8314 64.8444 24.0811 64.8444 24.3878Z" fill="white"/>
<path d="M64.8444 24.3878C64.8444 24.6944 64.5957 24.9441 64.2881 24.9441C63.9814 24.9441 63.7327 24.6944 63.7327 24.3878C63.7327 24.0811 63.9814 23.8314 64.2881 23.8314C64.5957 23.8314 64.8444 24.0811 64.8444 24.3878Z" stroke="white" stroke-width="0.19074" stroke-miterlimit="10"/>
<path d="M67.3745 21.8586C67.3745 22.1653 67.1258 22.4149 66.8182 22.4149C66.5115 22.4149 66.2628 22.1653 66.2628 21.8586C66.2628 21.5519 66.5115 21.3023 66.8182 21.3023C67.1258 21.3023 67.3745 21.5519 67.3745 21.8586Z" fill="white"/>
<path d="M67.3745 21.8586C67.3745 22.1653 67.1258 22.4149 66.8182 22.4149C66.5115 22.4149 66.2628 22.1653 66.2628 21.8586C66.2628 21.5519 66.5115 21.3023 66.8182 21.3023C67.1258 21.3023 67.3745 21.5519 67.3745 21.8586Z" stroke="white" stroke-width="0.19074" stroke-miterlimit="10"/>
<path d="M69.9057 19.3295C69.9057 19.6362 69.657 19.8859 69.3493 19.8859C69.0427 19.8859 68.7939 19.6362 68.7939 19.3295C68.7939 19.0229 69.0427 18.7732 69.3493 18.7732C69.657 18.7732 69.9057 19.0229 69.9057 19.3295Z" fill="white"/>
<path d="M69.9057 19.3295C69.9057 19.6362 69.657 19.8859 69.3493 19.8859C69.0427 19.8859 68.7939 19.6362 68.7939 19.3295C68.7939 19.0229 69.0427 18.7732 69.3493 18.7732C69.657 18.7732 69.9057 19.0229 69.9057 19.3295Z" stroke="white" stroke-width="0.19074" stroke-miterlimit="10"/>
<path d="M72.4368 16.8002C72.4368 17.1069 72.1881 17.3566 71.8805 17.3566C71.5738 17.3566 71.3251 17.1069 71.3251 16.8002C71.3251 16.4936 71.5738 16.2439 71.8805 16.2439C72.1881 16.2439 72.4368 16.4936 72.4368 16.8002Z" fill="white"/>
<path d="M72.4368 16.8002C72.4368 17.1069 72.1881 17.3566 71.8805 17.3566C71.5738 17.3566 71.3251 17.1069 71.3251 16.8002C71.3251 16.4936 71.5738 16.2439 71.8805 16.2439C72.1881 16.2439 72.4368 16.4936 72.4368 16.8002Z" stroke="white" stroke-width="0.19074" stroke-miterlimit="10"/>
<path d="M74.9669 14.2708C74.9669 14.5775 74.7182 14.8271 74.4106 14.8271C74.1039 14.8271 73.8552 14.5775 73.8552 14.2708C73.8552 13.9641 74.1039 13.7145 74.4106 13.7145C74.7182 13.7145 74.9669 13.9641 74.9669 14.2708Z" fill="white"/>
<path d="M74.9669 14.2708C74.9669 14.5775 74.7182 14.8271 74.4106 14.8271C74.1039 14.8271 73.8552 14.5775 73.8552 14.2708C73.8552 13.9641 74.1039 13.7145 74.4106 13.7145C74.7182 13.7145 74.9669 13.9641 74.9669 14.2708Z" stroke="white" stroke-width="0.19074" stroke-miterlimit="10"/>
<path d="M77.4979 11.7419C77.4979 12.0486 77.2492 12.2982 76.9416 12.2982C76.6349 12.2982 76.3862 12.0486 76.3862 11.7419C76.3862 11.4352 76.6349 11.1856 76.9416 11.1856C77.2492 11.1856 77.4979 11.4352 77.4979 11.7419Z" fill="white"/>
<path d="M77.4979 11.7419C77.4979 12.0486 77.2492 12.2982 76.9416 12.2982C76.6349 12.2982 76.3862 12.0486 76.3862 11.7419C76.3862 11.4352 76.6349 11.1856 76.9416 11.1856C77.2492 11.1856 77.4979 11.4352 77.4979 11.7419Z" stroke="white" stroke-width="0.19074" stroke-miterlimit="10"/>
<path d="M80.0281 9.2126C80.0281 9.51928 79.7794 9.76892 79.4718 9.76892C79.1651 9.76892 78.9164 9.51928 78.9164 9.2126C78.9164 8.90592 79.1651 8.65627 79.4718 8.65627C79.7794 8.65627 80.0281 8.90592 80.0281 9.2126Z" fill="white"/>
<path d="M80.0281 9.2126C80.0281 9.51928 79.7794 9.76892 79.4718 9.76892C79.1651 9.76892 78.9164 9.51928 78.9164 9.2126C78.9164 8.90592 79.1651 8.65627 79.4718 8.65627C79.7794 8.65627 80.0281 8.90592 80.0281 9.2126Z" stroke="white" stroke-width="0.19074" stroke-miterlimit="10"/>
<path d="M82.5592 6.68342C82.5592 6.9901 82.3105 7.23975 82.0029 7.23975C81.6962 7.23975 81.4475 6.9901 81.4475 6.68342C81.4475 6.37674 81.6962 6.1271 82.0029 6.1271C82.3105 6.1271 82.5592 6.37674 82.5592 6.68342Z" fill="white"/>
<path d="M82.5592 6.68342C82.5592 6.9901 82.3105 7.23975 82.0029 7.23975C81.6962 7.23975 81.4475 6.9901 81.4475 6.68342C81.4475 6.37674 81.6962 6.1271 82.0029 6.1271C82.3105 6.1271 82.5592 6.37674 82.5592 6.68342Z" stroke="white" stroke-width="0.19074" stroke-miterlimit="10"/>
<path d="M47.1297 42.0921C47.1297 42.3988 46.8809 42.6484 46.5733 42.6484C46.2667 42.6484 46.0179 42.3988 46.0179 42.0921C46.0179 41.7854 46.2667 41.5358 46.5733 41.5358C46.8809 41.5358 47.1297 41.7854 47.1297 42.0921Z" fill="white"/>
<path d="M47.1297 42.0921C47.1297 42.3988 46.8809 42.6484 46.5733 42.6484C46.2667 42.6484 46.0179 42.3988 46.0179 42.0921C46.0179 41.7854 46.2667 41.5358 46.5733 41.5358C46.8809 41.5358 47.1297 41.7854 47.1297 42.0921Z" stroke="white" stroke-width="0.19074" stroke-miterlimit="10"/>
<path d="M43.4868 39.5629C43.4868 39.8696 43.7355 40.1193 44.0431 40.1193C44.3498 40.1193 44.5985 39.8696 44.5985 39.5629C44.5985 39.2563 44.3498 39.0066 44.0431 39.0066C43.7355 39.0066 43.4868 39.2563 43.4868 39.5629Z" fill="white"/>
<path d="M43.4868 39.5629C43.4868 39.8696 43.7355 40.1193 44.0431 40.1193C44.3498 40.1193 44.5985 39.8696 44.5985 39.5629C44.5985 39.2563 44.3498 39.0066 44.0431 39.0066C43.7355 39.0066 43.4868 39.2563 43.4868 39.5629Z" stroke="white" stroke-width="0.19074" stroke-miterlimit="10"/>
<path d="M40.9558 37.0338C40.9558 37.3404 41.2045 37.5901 41.5121 37.5901C41.8188 37.5901 42.0675 37.3404 42.0675 37.0338C42.0675 36.7271 41.8188 36.4774 41.5121 36.4774C41.2045 36.4774 40.9558 36.7271 40.9558 37.0338Z" fill="white"/>
<path d="M40.9558 37.0338C40.9558 37.3404 41.2045 37.5901 41.5121 37.5901C41.8188 37.5901 42.0675 37.3404 42.0675 37.0338C42.0675 36.7271 41.8188 36.4774 41.5121 36.4774C41.2045 36.4774 40.9558 36.7271 40.9558 37.0338Z" stroke="white" stroke-width="0.19074" stroke-miterlimit="10"/>
<path d="M38.4257 34.5046C38.4257 34.8113 38.6744 35.0609 38.982 35.0609C39.2887 35.0609 39.5374 34.8113 39.5374 34.5046C39.5374 34.1979 39.2887 33.9483 38.982 33.9483C38.6744 33.9483 38.4257 34.1979 38.4257 34.5046Z" fill="white"/>
<path d="M38.4257 34.5046C38.4257 34.8113 38.6744 35.0609 38.982 35.0609C39.2887 35.0609 39.5374 34.8113 39.5374 34.5046C39.5374 34.1979 39.2887 33.9483 38.982 33.9483C38.6744 33.9483 38.4257 34.1979 38.4257 34.5046Z" stroke="white" stroke-width="0.19074" stroke-miterlimit="10"/>
<path d="M35.8945 31.9754C35.8945 32.2821 36.1432 32.5317 36.4509 32.5317C36.7575 32.5317 37.0062 32.2821 37.0062 31.9754C37.0062 31.6687 36.7575 31.4191 36.4509 31.4191C36.1432 31.4191 35.8945 31.6687 35.8945 31.9754Z" fill="white"/>
<path d="M35.8945 31.9754C35.8945 32.2821 36.1432 32.5317 36.4509 32.5317C36.7575 32.5317 37.0062 32.2821 37.0062 31.9754C37.0062 31.6687 36.7575 31.4191 36.4509 31.4191C36.1432 31.4191 35.8945 31.6687 35.8945 31.9754Z" stroke="white" stroke-width="0.19074" stroke-miterlimit="10"/>
<path d="M33.3635 29.4462C33.3635 29.7529 33.6122 30.0026 33.9199 30.0026C34.2265 30.0026 34.4752 29.7529 34.4752 29.4462C34.4752 29.1396 34.2265 28.8899 33.9199 28.8899C33.6122 28.8899 33.3635 29.1396 33.3635 29.4462Z" fill="white"/>
<path d="M33.3635 29.4462C33.3635 29.7529 33.6122 30.0026 33.9199 30.0026C34.2265 30.0026 34.4752 29.7529 34.4752 29.4462C34.4752 29.1396 34.2265 28.8899 33.9199 28.8899C33.6122 28.8899 33.3635 29.1396 33.3635 29.4462Z" stroke="white" stroke-width="0.19074" stroke-miterlimit="10"/>
<path d="M30.8333 26.9171C30.8333 27.2237 31.082 27.4734 31.3896 27.4734C31.6963 27.4734 31.945 27.2237 31.945 26.9171C31.945 26.6104 31.6963 26.3607 31.3896 26.3607C31.082 26.3607 30.8333 26.6104 30.8333 26.9171Z" fill="white"/>
<path d="M30.8333 26.9171C30.8333 27.2237 31.082 27.4734 31.3896 27.4734C31.6963 27.4734 31.945 27.2237 31.945 26.9171C31.945 26.6104 31.6963 26.3607 31.3896 26.3607C31.082 26.3607 30.8333 26.6104 30.8333 26.9171Z" stroke="white" stroke-width="0.19074" stroke-miterlimit="10"/>
<path d="M28.3022 24.3878C28.3022 24.6944 28.551 24.9441 28.8586 24.9441C29.1653 24.9441 29.414 24.6944 29.414 24.3878C29.414 24.0811 29.1653 23.8314 28.8586 23.8314C28.551 23.8314 28.3022 24.0811 28.3022 24.3878Z" fill="white"/>
<path d="M28.3022 24.3878C28.3022 24.6944 28.551 24.9441 28.8586 24.9441C29.1653 24.9441 29.414 24.6944 29.414 24.3878C29.414 24.0811 29.1653 23.8314 28.8586 23.8314C28.551 23.8314 28.3022 24.0811 28.3022 24.3878Z" stroke="white" stroke-width="0.19074" stroke-miterlimit="10"/>
<path d="M25.7721 21.8586C25.7721 22.1653 26.0208 22.4149 26.3284 22.4149C26.6351 22.4149 26.8838 22.1653 26.8838 21.8586C26.8838 21.5519 26.6351 21.3023 26.3284 21.3023C26.0208 21.3023 25.7721 21.5519 25.7721 21.8586Z" fill="white"/>
<path d="M25.7721 21.8586C25.7721 22.1653 26.0208 22.4149 26.3284 22.4149C26.6351 22.4149 26.8838 22.1653 26.8838 21.8586C26.8838 21.5519 26.6351 21.3023 26.3284 21.3023C26.0208 21.3023 25.7721 21.5519 25.7721 21.8586Z" stroke="white" stroke-width="0.19074" stroke-miterlimit="10"/>
<path d="M23.241 19.3295C23.241 19.6362 23.4897 19.8859 23.7974 19.8859C24.104 19.8859 24.3527 19.6362 24.3527 19.3295C24.3527 19.0229 24.104 18.7732 23.7974 18.7732C23.4897 18.7732 23.241 19.0229 23.241 19.3295Z" fill="white"/>
<path d="M23.241 19.3295C23.241 19.6362 23.4897 19.8859 23.7974 19.8859C24.104 19.8859 24.3527 19.6362 24.3527 19.3295C24.3527 19.0229 24.104 18.7732 23.7974 18.7732C23.4897 18.7732 23.241 19.0229 23.241 19.3295Z" stroke="white" stroke-width="0.19074" stroke-miterlimit="10"/>
<path d="M20.7109 16.8002C20.7109 17.1069 20.9596 17.3566 21.2672 17.3566C21.5739 17.3566 21.8226 17.1069 21.8226 16.8002C21.8226 16.4936 21.5739 16.2439 21.2672 16.2439C20.9596 16.2439 20.7109 16.4936 20.7109 16.8002Z" fill="white"/>
<path d="M20.7109 16.8002C20.7109 17.1069 20.9596 17.3566 21.2672 17.3566C21.5739 17.3566 21.8226 17.1069 21.8226 16.8002C21.8226 16.4936 21.5739 16.2439 21.2672 16.2439C20.9596 16.2439 20.7109 16.4936 20.7109 16.8002Z" stroke="white" stroke-width="0.19074" stroke-miterlimit="10"/>
<path d="M18.1797 14.2708C18.1797 14.5775 18.4285 14.8271 18.7361 14.8271C19.0428 14.8271 19.2915 14.5775 19.2915 14.2708C19.2915 13.9641 19.0428 13.7145 18.7361 13.7145C18.4285 13.7145 18.1797 13.9641 18.1797 14.2708Z" fill="white"/>
<path d="M18.1797 14.2708C18.1797 14.5775 18.4285 14.8271 18.7361 14.8271C19.0428 14.8271 19.2915 14.5775 19.2915 14.2708C19.2915 13.9641 19.0428 13.7145 18.7361 13.7145C18.4285 13.7145 18.1797 13.9641 18.1797 14.2708Z" stroke="white" stroke-width="0.19074" stroke-miterlimit="10"/>
<path d="M15.6487 11.7419C15.6487 12.0486 15.8974 12.2982 16.205 12.2982C16.5117 12.2982 16.7604 12.0486 16.7604 11.7419C16.7604 11.4352 16.5117 11.1856 16.205 11.1856C15.8974 11.1856 15.6487 11.4352 15.6487 11.7419Z" fill="white"/>
<path d="M15.6487 11.7419C15.6487 12.0486 15.8974 12.2982 16.205 12.2982C16.5117 12.2982 16.7604 12.0486 16.7604 11.7419C16.7604 11.4352 16.5117 11.1856 16.205 11.1856C15.8974 11.1856 15.6487 11.4352 15.6487 11.7419Z" stroke="white" stroke-width="0.19074" stroke-miterlimit="10"/>
<path d="M13.1185 9.2126C13.1185 9.51928 13.3672 9.76892 13.6749 9.76892C13.9815 9.76892 14.2302 9.51928 14.2302 9.2126C14.2302 8.90592 13.9815 8.65627 13.6749 8.65627C13.3672 8.65627 13.1185 8.90592 13.1185 9.2126Z" fill="white"/>
<path d="M13.1185 9.2126C13.1185 9.51928 13.3672 9.76892 13.6749 9.76892C13.9815 9.76892 14.2302 9.51928 14.2302 9.2126C14.2302 8.90592 13.9815 8.65627 13.6749 8.65627C13.3672 8.65627 13.1185 8.90592 13.1185 9.2126Z" stroke="white" stroke-width="0.19074" stroke-miterlimit="10"/>
<path d="M10.5875 6.68342C10.5875 6.9901 10.8362 7.23975 11.1438 7.23975C11.4505 7.23975 11.6992 6.9901 11.6992 6.68342C11.6992 6.37674 11.4505 6.1271 11.1438 6.1271C10.8362 6.1271 10.5875 6.37674 10.5875 6.68342Z" fill="white"/>
<path d="M10.5875 6.68342C10.5875 6.9901 10.8362 7.23975 11.1438 7.23975C11.4505 7.23975 11.6992 6.9901 11.6992 6.68342C11.6992 6.37674 11.4505 6.1271 11.1438 6.1271C10.8362 6.1271 10.5875 6.37674 10.5875 6.68342Z" stroke="white" stroke-width="0.19074" stroke-miterlimit="10"/>
<path d="M85.006 42.3012V56.5365C81.0743 56.5365 77.8878 53.3501 77.8878 49.4184C77.8878 45.4876 81.0743 42.3012 85.006 42.3012ZM85.006 42.3012C81.0743 42.3012 77.8878 39.1137 77.8878 35.183C77.8878 31.2523 81.0743 28.0649 85.006 28.0649M85.006 42.3012V28.0649M85.006 28.0649C81.0743 28.0649 77.8878 24.8784 77.8878 20.9476C77.8878 17.0169 81.0743 13.8295 85.006 13.8295V28.0649ZM77.0229 1.10413L46.5999 31.4907L16.1806 1.10413H77.0229ZM77.8878 63.6715C77.8878 67.6023 81.0743 70.7897 85.006 70.7897V56.5543C81.0743 56.5543 77.8878 59.7408 77.8878 63.6715ZM8.36591 19.0487V55.7222C18.4929 55.7222 26.7031 47.5129 26.7031 37.3849C26.7031 27.258 18.4929 19.0487 8.36591 19.0487Z" stroke="white" stroke-width="0.545105" stroke-miterlimit="10"/>
<path d="M23.2897 92.5346C24.1153 98.138 26.4528 111.34 28.2405 117.253L24.4248 117.907C23.9769 113.644 21.674 101.611 20.5735 96.6598C18.3388 102.677 15.3141 112.75 14.2136 117.116L11.7723 117.735C10.8102 113.368 7.37222 101.37 5.61816 96.6261C4.07167 103.295 2.48965 113.644 1.93987 117.288L0.255005 117.529C1.3555 114.366 3.89963 101.405 5.27502 93.2564L7.88741 92.5346C8.91871 97.1759 11.9098 106.699 14.1444 113.265C16.1734 107.352 18.8204 99.2039 20.4706 93.2218L23.2897 92.5346Z" fill="white"/>
<path d="M47.1237 92.4658C49.0488 98.5162 54.2746 111.546 57.0253 117.288L52.9684 117.598C52.2465 115.397 50.6645 110.722 49.0152 106.08C46.299 105.977 43.4454 106.046 40.7975 106.08C38.9761 110.722 37.3941 115.087 36.8443 117.254L35.022 117.598C36.5694 114.916 41.898 101.336 44.7862 93.2568L47.1237 92.4658ZM44.889 95.6635C42.4141 101.989 41.7605 103.674 41.1079 105.324C43.5482 105.427 46.299 105.496 48.774 105.392C47.3649 101.439 45.8857 97.7261 44.889 95.6635Z" fill="white"/>
<path d="M68.1688 92.8096C67.8939 102.195 67.8247 108.177 68.2024 117.323H64.8336C65.1085 108.143 65.0403 102.161 64.8682 92.8096H68.1688Z" fill="white"/>
<path d="M77.9572 92.8096C81.4298 92.8096 89.784 92.9125 93.668 92.775C90.7808 97.0732 83.1138 111.753 80.8791 116.738C84.9361 116.841 91.3305 116.669 94.4254 115.947L93.9093 117.391H76.3416C79.126 113.093 87.1025 98.0353 89.2333 93.4968C85.7271 93.3257 79.917 93.4286 77.3729 94.6319L77.9572 92.8096Z" fill="white"/>
<path d="M46.591 143.197C45.9468 143.197 45.613 143.531 45.613 144.175C45.613 144.819 45.9468 145.13 46.591 145.13C47.2353 145.13 47.5691 144.819 47.5691 144.196C47.5691 143.641 47.1025 143.197 46.591 143.197Z" fill="white"/>
<path d="M49.5015 143.197C48.8573 143.197 48.5244 143.531 48.5244 144.175C48.5244 144.819 48.8573 145.13 49.5015 145.13C50.1681 145.13 50.501 144.819 50.501 144.196C50.501 143.641 50.0569 143.197 49.5015 143.197Z" fill="white"/>
<path d="M58.9884 139.176C57.5663 139.176 56.678 137.643 56.678 135.443C56.678 134.175 56.922 133.2 57.4111 132.466C57.9674 131.621 58.8107 131.199 59.8991 131.199C60.3208 131.199 60.8098 131.289 61.3661 131.443L61.5886 133.133C61.7223 134.133 61.7878 134.932 61.7878 135.533C61.7878 137.953 60.8547 139.176 58.9884 139.176ZM35.8612 139.176V136.787C35.8771 135.355 35.9285 133.855 36.0117 130.858L36.0136 130.802H34.4325V130.858C34.4344 130.965 34.4344 131.069 34.4362 131.172C34.4521 132.213 34.4662 133.077 34.4774 133.81V133.832C34.4858 134.593 34.497 135.208 34.5036 135.73V140.154C34.5036 140.975 34.3044 141.731 33.8827 142.464C33.304 143.42 32.6925 144.059 31.5602 144.479L33.4003 144.409C34.928 143.485 35.7424 141.982 35.8593 139.886L35.8612 139.176ZM50.4575 139.336C50.4734 137.905 50.5248 133.855 50.608 130.858L50.6099 130.802H49.0288V130.858C49.0307 130.965 49.0307 131.069 49.0335 131.172C49.0484 132.213 49.0624 133.077 49.0737 133.81C49.0849 134.69 49.0961 135.378 49.1026 135.95V139.608L50.4575 139.336ZM35.5517 140.242H58.477C61.4559 140.242 62.9434 138.976 62.9434 136.421V133L63.1202 130.822C62.2992 130.533 61.3885 130.378 60.3881 130.378C58.8332 130.378 57.5887 130.89 56.6556 131.887C55.7449 132.888 55.2783 134.22 55.2783 135.887C55.2783 137.265 55.6121 138.355 56.2563 139.176H52.4789H35.5517" fill="white"/>
<path d="M36.0773 126.975C36.0773 127.518 35.637 127.958 35.0937 127.958C34.5505 127.958 34.1101 127.518 34.1101 126.975C34.1101 126.431 34.5505 125.991 35.0937 125.991C35.637 125.991 36.0773 126.431 36.0773 126.975Z" fill="white"/>
</svg>
